<svg width="504" height="278" viewBox="0 0 504 278" fill="none" xmlns="http://www.w3.org/2000/svg">
<path d="M0 95.786L33.4586 96.1989L66.2288 180.287L107.398 64.4078L149.669 155.515L190.976 42.5256H174.728L206.948 10.184L238.616 42.5256L222.094 42.6632L149.531 221.161L107.398 135.422L65.9534 245.658L0 95.786Z" fill="#EC6608"/>
<path fill-rule="evenodd" clip-rule="evenodd" d="M0.550756 85.0515C8.53676 85.0515 16.6605 85.0515 24.6465 85.0515C29.0525 85.0515 33.5963 85.0515 38.0024 85.0515C38.5531 85.0515 39.2416 85.3267 39.517 85.7396C46.5391 92.896 53.4236 100.052 60.3081 107.209C64.9896 112.163 69.8087 116.98 74.4902 121.935C74.9032 122.348 75.1786 122.898 75.454 123.449C76.9686 127.164 78.3455 130.88 79.8601 134.596C79.9978 134.871 80.1354 135.147 80.4108 135.697C90.3245 107.209 99.9628 79.1337 109.739 50.9208C110.84 52.0218 112.079 53.1228 113.181 54.3614C124.472 65.9218 135.624 77.4822 146.777 89.1802C147.053 89.4554 147.328 90.0059 147.466 90.4188C151.321 100.19 155.039 109.961 158.894 119.87C159.032 120.146 159.032 120.283 159.307 120.696C169.358 93.1713 179.41 65.9218 189.461 38.5347H170.047C170.46 37.9842 170.735 37.7089 171.011 37.4337C183.127 25.3228 195.382 13.0743 207.498 0.963362C207.774 0.688115 208.049 0.412871 208.325 0H208.462C220.166 11.698 231.87 23.396 243.573 35.0941C252.661 44.3149 261.473 53.5356 270.423 62.7564C274.14 66.6099 277.858 70.4634 281.576 74.3168C281.713 74.4545 281.851 74.5921 282.126 74.8673C281.576 74.8673 281.3 74.8673 280.887 74.8673C274.553 74.8673 268.082 74.8673 261.748 74.8673C260.922 74.8673 260.509 75.1426 260.234 75.8307C249.218 102.943 238.341 130.192 227.326 157.304C214.383 189.233 201.578 221.161 188.635 252.952C188.497 253.228 188.497 253.365 188.36 253.503C186.845 251.989 185.193 250.613 183.678 248.961C178.308 243.456 172.801 237.814 167.431 232.171C162.061 226.666 156.691 221.161 151.321 215.519C150.22 214.28 149.531 212.629 148.843 210.977C145.676 204.371 142.371 197.903 139.204 191.297C139.067 191.022 138.929 190.747 138.654 190.334C127.638 219.51 116.761 248.686 105.608 278C92.6652 264.65 81.5123 253.09 68.7072 239.878C67.7434 238.089 67.1926 236.988 67.0549 236.438C50.2568 198.453 33.5963 160.469 16.7982 122.485C11.4283 110.237 5.92066 97.9881 0.550756 85.7396C0.413066 85.4644 0.27538 85.0515 0 84.7762V85.0515H0.550756ZM110.703 56.9762C97.209 95.3733 83.8531 133.495 70.3595 171.754C70.0841 171.204 69.9464 170.929 69.9464 170.653C59.3443 143.542 48.6045 116.292 38.0024 89.1802C37.5893 88.2168 37.1762 87.9416 36.2124 87.9416C26.2987 87.9416 16.3851 87.9416 6.47142 87.9416H5.09452C26.7118 137.073 48.3291 186.067 70.0841 235.199C83.7154 198.729 97.3467 162.671 110.978 126.339C124.885 154.689 138.654 182.902 152.56 211.252C176.381 152.212 199.926 94.1347 223.608 35.5069C224.434 35.5069 234.899 35.5069 239.305 35.5069C239.58 35.5069 239.856 35.5069 239.993 35.3693C229.529 24.9099 219.202 14.5881 209.013 4.40396C198.686 14.7257 188.222 25.0475 177.758 35.3693H193.867C180.236 72.6653 166.605 109.824 152.836 147.257C138.654 117.118 124.747 87.2535 110.703 56.9762ZM109.05 261.21C108.637 260.935 108.224 260.522 107.949 260.247C104.782 256.944 101.477 253.641 98.3105 250.338C91.8391 243.594 85.23 236.851 78.7585 230.107C77.7947 229.006 76.6932 228.043 75.5917 227.079C74.9032 228.731 74.3525 230.245 73.8017 231.896C73.664 232.171 73.8017 232.722 74.0771 232.997C77.9324 237.126 81.9254 241.117 85.9184 245.246C91.426 250.888 96.7959 256.531 102.304 262.173C103.818 263.687 105.47 265.201 107.123 266.715C107.811 264.65 108.362 262.999 109.05 261.21ZM222.094 45.5535C221.543 46.7921 220.854 48.4436 220.304 50.0951C220.166 50.3703 220.441 50.7832 220.579 50.9208C221.405 51.8842 222.369 52.8475 223.195 53.6733C232.145 62.8941 241.095 72.2525 250.045 81.4733C251.146 82.5743 252.248 83.6752 253.349 84.6386C253.9 83.1248 254.588 81.6109 255.139 80.097C255.415 79.5465 255.277 79.1337 254.864 78.7208C252.385 76.1059 249.907 73.4911 247.291 71.0139C240.819 64.4079 234.486 57.6644 227.877 51.0584C226.224 49.2693 224.159 47.4802 222.094 45.5535ZM78.4832 219.51C77.7947 221.024 77.3816 221.987 76.9686 222.95C76.2801 224.464 76.8309 225.428 78.0701 226.666C87.7084 236.438 97.209 246.347 106.71 256.255C107.673 257.356 108.775 258.32 109.876 259.283C110.29 258.32 110.565 257.356 110.978 256.393C111.391 255.43 111.666 254.466 111.942 253.778C100.651 242.493 89.636 230.933 78.4832 219.51ZM95.0059 175.47C94.3175 177.259 93.6291 178.911 93.0783 180.7C92.9406 180.975 93.216 181.388 93.3537 181.526C95.6944 184.003 98.0351 186.48 100.376 188.82C107.949 196.527 115.384 204.371 122.957 212.078C124.058 213.179 125.16 214.143 126.262 215.381C126.812 213.73 127.363 212.216 128.051 210.702C128.327 210.151 128.189 209.739 127.776 209.326C126.675 208.225 125.573 206.986 124.472 205.885C119.377 200.655 114.42 195.426 109.326 190.334C104.644 185.379 99.9628 180.562 95.0059 175.47ZM112.63 251.851C113.181 250.338 113.869 248.686 114.42 247.035C114.42 246.897 114.283 246.484 114.145 246.347C111.116 243.181 107.949 239.878 104.92 236.713C98.4482 229.969 91.9768 223.226 85.3677 216.482C83.9908 215.106 82.6139 213.867 81.0993 212.491C80.5485 214.005 79.8601 215.656 79.3093 217.308C79.1716 217.583 79.447 217.996 79.5847 218.271C83.3023 222.125 86.8822 225.841 90.5999 229.694C96.2452 235.474 101.753 241.254 107.398 247.035C109.05 248.686 110.978 250.2 112.63 251.851ZM247.704 99.0891C248.255 97.5752 248.943 96.0614 249.632 94.4099C249.769 94.1347 249.494 93.7218 249.218 93.4465C247.429 91.5198 245.639 89.7307 243.849 87.804C235.863 79.5465 227.877 71.1515 219.753 62.8941C218.651 61.7931 217.55 60.6921 216.311 59.5911C215.622 61.1049 215.071 62.7564 214.383 64.2703C214.108 64.8208 214.245 65.096 214.658 65.5089C215.76 66.6099 216.861 67.8485 218.101 69.0871C226.5 77.7574 234.899 86.4277 243.298 95.098C244.812 96.4743 246.327 97.7129 247.704 99.0891ZM198.411 221.161C198.962 219.785 199.512 218.271 200.201 216.757C200.476 216.207 200.339 215.932 199.926 215.519C196.759 212.353 193.73 209.051 190.563 205.885C183.54 198.729 176.656 191.435 169.634 184.278C168.808 183.452 167.982 182.489 167.018 181.526C166.329 183.315 165.641 184.966 164.952 186.618C164.815 186.893 165.09 187.306 165.228 187.581C169.496 191.985 173.764 196.527 178.033 200.931C182.99 206.023 187.947 211.252 192.903 216.345C194.969 217.996 196.759 219.51 198.411 221.161ZM134.523 193.499C135.211 191.71 135.9 190.058 136.451 188.269C136.588 187.994 136.313 187.581 136.175 187.444C133.972 185.104 131.631 182.764 129.428 180.425C121.993 172.718 114.558 165.011 107.123 157.304C105.883 156.065 104.644 154.827 103.267 153.588C102.717 155.24 102.028 156.753 101.477 158.405C101.34 158.68 101.615 159.093 101.753 159.368C102.992 160.745 104.231 161.983 105.47 163.222C111.942 169.828 118.276 176.571 124.747 183.177C127.914 186.755 131.218 190.058 134.523 193.499ZM238.892 120.971C239.58 119.32 240.269 117.668 240.819 116.154C240.957 115.879 240.819 115.329 240.544 115.191C238.066 112.576 235.587 110.099 233.109 107.484C226.224 100.328 219.202 93.1713 212.318 86.0149C210.803 84.501 209.151 83.1247 207.498 81.6109C206.948 82.8495 206.397 84.3634 205.709 85.8772C205.433 86.4277 205.571 86.8406 205.984 87.2535C208.462 89.8683 210.941 92.4832 213.557 94.9604C219.478 101.016 225.398 107.209 231.181 113.264C233.935 115.742 236.413 118.219 238.892 120.971ZM189.737 242.631C190.287 241.254 190.976 239.741 191.526 238.089C191.664 237.814 191.526 237.263 191.251 237.126C187.533 233.135 183.678 229.281 179.823 225.29C174.866 220.198 170.047 214.968 164.952 210.014C162.749 207.812 160.409 205.748 158.068 203.683C157.655 204.647 157.104 206.16 156.416 207.674C156.14 208.362 156.14 208.775 156.691 209.326C160.271 213.042 163.851 216.757 167.431 220.473C172.938 226.116 178.308 231.896 183.816 237.539C185.881 239.19 187.947 240.842 189.737 242.631ZM89.3607 190.747C88.9476 191.71 88.5345 193.086 87.9838 194.462C87.5707 195.426 87.7084 195.976 88.3968 196.664C91.9768 200.38 95.5567 204.096 99.1366 207.812C106.159 215.106 113.043 222.262 120.065 229.556C120.203 229.694 120.479 229.969 120.754 230.107C121.442 228.455 121.993 226.804 122.544 225.29C122.682 225.015 122.544 224.464 122.269 224.327C119.79 221.712 117.312 219.235 114.971 216.62C108.637 210.014 102.166 203.408 95.8321 196.802C93.7667 194.6 91.426 192.673 89.3607 190.747ZM218.651 171.204C219.34 169.552 219.891 168.176 220.579 166.662C220.854 165.974 220.717 165.561 220.166 165.011C210.665 155.102 201.027 145.193 191.526 135.284C190.287 133.908 188.773 132.807 187.533 131.431C186.983 132.945 186.294 134.458 185.606 136.11C185.468 136.385 185.606 136.798 185.881 137.073C188.222 139.55 190.7 142.028 193.041 144.505C198.549 150.148 204.056 155.928 209.564 161.57C212.455 164.873 215.484 167.901 218.651 171.204ZM175.692 160.469C175.141 161.708 174.591 163.222 173.902 164.873C173.764 165.149 173.902 165.561 174.04 165.837C175.004 166.938 175.968 167.901 176.931 168.864C185.881 178.085 194.693 187.306 203.643 196.527C204.745 197.628 205.846 198.591 206.948 199.692C207.498 198.316 208.049 196.802 208.738 195.426C209.151 194.6 209.013 194.187 208.325 193.499C205.709 190.884 203.23 188.269 200.614 185.654C194.28 179.049 187.947 172.443 181.475 165.837C179.823 164.048 177.62 162.258 175.692 160.469ZM196.208 109.686C195.519 111.338 194.969 112.851 194.28 114.365C194.005 114.916 194.143 115.329 194.556 115.742C197.585 118.907 200.614 121.935 203.643 125.1C209.564 131.155 215.347 137.349 221.405 143.404C223.333 145.468 225.536 147.257 227.601 149.047C228.014 147.946 228.703 146.432 229.253 144.918C229.529 144.367 229.391 143.954 228.978 143.542C226.5 140.927 224.021 138.312 221.405 135.835C216.448 130.605 211.354 125.375 206.397 120.283C203.092 116.843 199.65 113.264 196.208 109.686ZM210.115 192.398C210.665 191.022 211.354 189.508 211.905 187.856C212.042 187.581 211.905 187.031 211.629 186.893C208.6 183.59 205.433 180.425 202.266 177.259C195.244 169.965 188.36 162.809 181.337 155.515C180.511 154.689 179.685 153.863 178.859 152.9C178.171 154.551 177.482 156.203 176.931 157.717C176.794 157.992 176.931 158.543 177.207 158.818C181.062 162.809 184.78 166.8 188.635 170.653C194.005 176.296 199.375 181.939 204.882 187.444C206.397 189.095 208.325 190.747 210.115 192.398ZM100.376 161.295C100.238 161.708 99.9628 162.396 99.6874 163.222C99.2743 164.185 98.4482 165.286 98.7236 166.249C98.8613 167.213 100.1 167.901 100.789 168.727C110.84 179.186 121.029 189.646 131.081 200.105C131.356 200.38 131.494 200.518 131.907 200.793C132.595 199.142 133.008 197.628 133.697 196.114C133.972 195.563 133.834 195.15 133.421 194.738C130.668 191.985 128.051 189.095 125.298 186.343C118.964 179.737 112.493 173.131 106.159 166.525C104.231 164.598 102.166 162.947 100.376 161.295ZM123.508 222.813C124.196 221.024 124.885 219.372 125.435 217.721C125.573 217.446 125.298 216.895 125.16 216.757C121.305 212.766 117.449 208.638 113.456 204.647C106.572 197.628 99.8251 190.471 92.9406 183.452C92.8029 183.315 92.5275 183.177 92.3898 182.902C91.7014 184.553 91.1506 186.205 90.5999 187.719C90.4622 187.994 90.5999 188.545 90.8752 188.82C92.3898 190.471 93.9044 192.123 95.5567 193.637C100.514 198.866 105.608 204.096 110.565 209.188C114.696 213.73 119.102 218.271 123.508 222.813ZM86.7445 197.765C86.1938 199.142 85.643 200.655 85.0923 202.169C84.8169 202.857 84.9546 203.133 85.3677 203.683C88.9476 207.399 92.5275 211.115 96.1075 214.693C101.615 220.336 106.985 226.116 112.493 231.758C114.283 233.685 116.348 235.337 118.276 237.126C118.826 235.749 119.377 234.098 120.065 232.447C120.203 232.171 119.928 231.758 119.79 231.483C116.486 228.043 113.181 224.74 110.014 221.299C103.543 214.555 97.209 207.949 90.7375 201.344C89.223 200.105 87.9838 198.866 86.7445 197.765ZM233.384 134.871C233.935 133.633 234.623 131.981 235.174 130.33C235.312 130.054 235.036 129.642 234.899 129.504C234.21 128.678 233.384 127.852 232.696 127.164C223.746 117.806 214.658 108.448 205.709 99.2267C204.607 97.9881 203.23 96.8871 201.991 95.7861C201.44 97.3 200.752 98.8139 200.201 100.465C200.063 100.741 200.201 101.291 200.476 101.429C203.092 104.319 205.846 107.071 208.6 109.824C215.071 116.567 221.543 123.311 228.014 129.917C229.667 131.568 231.457 133.22 233.384 134.871ZM115.384 244.42C115.935 243.044 116.486 241.53 117.036 239.878C117.174 239.603 117.036 239.052 116.761 238.915C114.558 236.575 112.217 234.236 110.014 231.896C103.13 224.74 96.2452 217.583 89.223 210.427C87.433 208.638 85.5053 206.986 83.7154 205.335C83.1646 206.711 82.4762 208.362 81.9254 210.152C81.9254 210.289 82.0631 210.702 82.2008 210.84C84.8169 213.592 87.5707 216.482 90.1868 219.235C96.6582 225.978 103.13 232.722 109.601 239.328C111.666 241.117 113.594 242.631 115.384 244.42ZM236.276 127.577C236.826 126.339 237.377 124.825 238.066 123.173C238.203 122.898 238.066 122.485 237.79 122.21C235.863 120.146 233.935 118.219 232.007 116.292C224.159 108.172 216.311 99.9148 208.325 91.795C207.223 90.5564 205.984 89.4554 204.745 88.3545C204.194 89.8683 203.643 91.3822 202.955 92.7584C202.679 93.4465 202.817 93.8594 203.23 94.4099C206.81 97.9881 210.252 101.704 213.832 105.282C218.789 110.512 223.884 115.742 228.978 120.834C231.319 123.173 233.935 125.375 236.276 127.577ZM244.675 106.521C245.363 104.732 246.052 103.218 246.602 101.566C246.74 101.291 246.465 100.878 246.327 100.603C243.16 97.3 239.993 93.997 236.689 90.5564C229.391 82.9871 222.094 75.4178 214.796 67.8485C214.383 67.4356 213.97 67.0228 213.557 66.4723C212.868 68.2614 212.18 69.9129 211.629 71.4267C211.491 71.702 211.629 72.1148 211.905 72.3901C214.108 74.7297 216.448 77.2069 218.789 79.5465C224.71 85.7396 230.63 91.9327 236.689 97.9881C239.305 100.878 241.921 103.631 244.675 106.521ZM198.824 103.08C198.411 104.181 197.723 105.833 197.034 107.484C196.896 107.759 197.172 108.172 197.309 108.448C201.165 112.439 205.02 116.43 208.875 120.421C214.383 126.063 219.753 131.706 225.26 137.349C226.913 139 228.565 140.514 230.355 142.028C230.906 140.789 231.457 139.275 232.007 137.899C232.283 137.211 232.145 136.798 231.732 136.248C228.152 132.669 224.572 128.953 221.13 125.238C216.035 120.008 211.078 114.778 205.984 109.686C203.781 107.484 201.165 105.282 198.824 103.08ZM219.202 52.7099C218.651 53.9485 218.101 55.4624 217.412 56.9762C217.137 57.5267 217.274 57.9396 217.688 58.3525C221.681 62.4812 225.674 66.6099 229.667 70.7386C235.174 76.3812 240.544 82.0238 246.052 87.804C247.429 89.3178 248.943 90.6941 250.458 92.0703C251.146 90.5564 251.697 88.905 252.385 87.3911C252.523 87.1158 252.248 86.5653 252.11 86.4277C248.668 82.8495 245.225 79.2713 241.783 75.6931C236.276 70.0505 230.906 64.4079 225.398 58.7653C223.47 56.5634 221.267 54.6366 219.202 52.7099ZM224.572 156.616C225.26 155.102 225.949 153.45 226.5 151.799C226.637 151.524 226.362 151.111 226.224 150.973C222.92 147.533 219.615 144.092 216.311 140.651C209.839 133.908 203.368 127.302 196.896 120.558C195.795 119.32 194.418 118.219 193.179 117.118C192.628 118.494 192.077 119.87 191.526 121.247C191.113 122.072 191.251 122.485 191.802 123.036C195.795 127.164 199.788 131.293 203.919 135.422C209.426 141.064 214.796 146.707 220.304 152.487C221.681 154.001 223.057 155.24 224.572 156.616ZM97.622 168.589C97.0713 169.965 96.5205 171.479 95.9698 173.131C95.8321 173.406 95.9698 173.956 96.2451 174.232C99.1366 177.259 101.89 180.15 104.782 183.177C111.253 189.783 117.587 196.527 124.058 203.133C125.711 204.784 127.501 206.298 129.153 207.95C129.566 206.711 130.117 205.335 130.668 203.821C130.943 202.995 130.943 202.582 130.255 202.032C126.262 197.903 122.269 193.774 118.276 189.646C113.319 184.416 108.362 179.324 103.267 174.094C101.615 172.03 99.5497 170.378 97.622 168.589ZM195.382 228.593C196.07 226.942 196.621 225.428 197.309 224.051C197.585 223.363 197.447 222.951 197.034 222.538C193.041 218.409 189.048 214.28 185.193 210.289C180.236 205.059 175.141 199.83 170.047 194.738C168.119 192.811 166.054 191.022 164.126 189.233C163.575 190.609 162.887 192.123 162.336 193.774C162.199 194.049 162.336 194.462 162.612 194.738C165.916 198.316 169.358 201.756 172.663 205.197C177.758 210.427 182.852 215.656 187.809 220.886C190.287 223.363 192.766 225.978 195.382 228.593ZM184.642 138.45C183.954 140.101 183.403 141.615 182.714 143.129C182.439 143.679 182.577 144.092 182.99 144.505C186.432 148.083 189.874 151.661 193.316 155.24C198.824 160.882 204.194 166.662 209.702 172.167C211.629 174.232 213.832 176.021 215.898 177.81C216.311 176.847 216.861 175.47 217.412 174.094C217.825 173.131 217.688 172.58 216.999 171.892C211.905 166.8 206.948 161.57 201.991 156.341C196.208 150.56 190.425 144.505 184.642 138.45ZM241.783 113.677C242.472 112.163 242.885 110.65 243.573 109.273C243.986 108.448 243.849 107.897 243.16 107.347C239.167 103.218 235.174 99.0891 231.181 94.9604C226.224 89.7307 221.267 84.6386 216.173 79.4089C214.383 77.4822 212.318 75.8307 210.528 74.0416C209.977 75.4178 209.288 77.0693 208.6 78.7208C208.462 78.8584 208.738 79.2713 208.875 79.5465C212.18 82.9871 215.622 86.5653 218.927 90.0059C224.021 95.2356 228.978 100.465 234.073 105.695C236.689 108.448 239.167 111.062 241.783 113.677ZM212.868 185.517C213.281 184.416 213.695 183.315 214.245 182.351C215.209 180.7 214.796 179.599 213.557 178.36C203.092 167.763 192.903 157.029 182.439 146.294C182.301 146.156 182.026 146.019 181.75 145.744C181.062 147.395 180.511 148.909 179.823 150.285C179.547 150.836 179.685 151.249 180.098 151.661C182.714 154.414 185.33 157.166 188.084 159.919C194.005 166.112 199.926 172.305 205.984 178.36C208.049 180.7 210.39 183.04 212.868 185.517ZM201.44 213.73C201.853 212.491 202.542 210.977 203.23 209.326C203.368 209.051 203.23 208.638 202.955 208.362C199.237 204.371 195.382 200.518 191.526 196.527C185.193 189.921 178.859 183.315 172.525 176.847C171.699 176.021 171.011 175.195 170.185 174.369C169.496 176.296 168.808 177.81 168.119 179.461C167.982 179.737 168.257 180.15 168.395 180.287C171.561 183.59 174.728 186.893 178.033 190.334C183.54 195.976 188.91 201.756 194.418 207.261C196.621 209.463 199.099 211.528 201.44 213.73ZM192.766 235.337C193.316 234.098 194.005 232.447 194.556 230.795C194.693 230.52 194.418 230.107 194.143 229.832C191.251 226.804 188.36 223.776 185.468 220.749C178.997 214.005 172.525 207.399 166.054 200.655C164.539 199.004 162.749 197.628 161.235 196.114C160.684 197.352 160.133 198.866 159.445 200.38C159.169 200.931 159.307 201.344 159.72 201.756C161.923 203.958 163.989 206.16 166.054 208.362C172.938 215.519 179.823 222.675 186.707 229.694C188.635 231.758 190.7 233.548 192.766 235.337ZM204.056 207.124C204.745 205.335 205.433 203.821 205.984 202.169C206.122 201.894 205.846 201.481 205.709 201.206C202.266 197.628 198.824 194.049 195.382 190.471C189.874 184.829 184.504 179.049 178.997 173.544C176.931 171.479 174.728 169.69 172.663 167.763C172.25 168.727 171.699 170.241 171.011 171.617C170.735 172.305 170.735 172.855 171.286 173.406C172.938 174.92 174.453 176.571 175.968 178.223C182.301 184.829 188.635 191.435 195.106 198.041C198.136 200.931 201.165 203.958 204.056 207.124ZM190.425 124.137C189.737 125.788 189.048 127.44 188.497 128.953C188.36 129.229 188.497 129.779 188.773 129.917C191.526 132.807 194.28 135.697 197.034 138.587C203.505 145.193 209.839 151.937 216.311 158.543C217.963 160.332 219.891 161.846 221.681 163.497C222.231 162.121 222.92 160.469 223.47 158.818C223.608 158.543 223.333 158.13 223.057 157.992C220.854 155.652 218.651 153.313 216.311 150.973C209.839 144.23 203.368 137.624 196.896 130.88C194.969 128.816 192.766 126.476 190.425 124.137ZM274.829 71.8396C274.416 71.4267 274.14 71.1515 274.003 70.8762C269.734 66.4723 265.328 61.9307 261.06 57.5267C254.864 51.196 248.805 44.8653 242.609 38.5347C242.472 38.2594 242.196 37.9842 241.921 37.9842C239.856 37.9842 237.79 37.9842 235.45 37.9842C235.863 38.397 236 38.6723 236.276 38.8099C240.682 43.4891 245.225 48.0307 249.632 52.7099C255.69 58.903 261.611 65.2337 267.669 71.4267C267.944 71.702 268.22 71.8396 268.495 71.8396C270.423 71.8396 272.488 71.8396 274.829 71.8396ZM137.001 185.93C137.001 185.517 137.001 185.517 137.001 185.379C134.661 180.562 132.32 175.883 129.979 171.066C129.704 170.653 129.291 170.241 129.015 169.828C123.095 163.635 117.174 157.579 111.253 151.386C109.601 149.597 107.673 148.083 105.883 146.569C105.333 147.946 104.782 149.597 104.093 151.249C103.956 151.524 104.231 151.937 104.369 152.074C106.434 154.276 108.637 156.478 110.84 158.818C116.761 165.011 122.819 171.204 128.74 177.397C131.494 180.149 134.248 182.902 137.001 185.93ZM224.71 39.3604C224.297 40.4614 223.746 41.7 223.195 42.9386C223.057 43.2139 223.333 43.6267 223.47 43.7644C227.188 47.7554 231.043 51.6089 234.761 55.4624C240.682 61.6554 246.74 67.8485 252.661 74.0416C253.9 75.2802 255.139 76.3812 256.378 77.4822C256.791 76.3812 257.342 75.2802 257.755 74.0416C258.031 73.4911 257.893 73.2158 257.48 72.803C254.451 69.7752 251.559 66.7475 248.668 63.7198C242.059 56.9762 235.45 50.095 228.84 43.3515C227.601 41.9752 226.087 40.7366 224.71 39.3604ZM227.463 37.9842C227.739 38.2594 227.739 38.397 227.877 38.5347C238.479 49.5446 249.081 60.5545 259.821 71.4267C259.958 71.5644 260.234 71.8396 260.371 71.8396C262.161 71.8396 263.814 71.8396 265.879 71.8396C264.915 70.8762 264.227 70.0505 263.401 69.2247C258.444 64.1327 253.487 59.0406 248.53 53.8109C243.573 48.7188 238.616 43.6267 233.797 38.5347C233.522 38.2594 233.109 37.9842 232.833 37.9842C230.906 37.9842 229.253 37.9842 227.463 37.9842ZM105.746 268.091C94.8683 256.806 83.9908 245.521 72.9756 234.236C72.5625 235.337 72.2871 236.3 71.8741 237.126C71.5987 237.676 71.7364 238.089 72.1494 238.502C76.5555 243.044 81.0993 247.723 85.5053 252.402C91.0129 258.045 96.5205 263.825 102.028 269.467C102.992 270.431 103.956 271.394 104.92 272.357C105.608 270.568 105.608 270.568 106.296 268.779C106.021 268.366 106.021 268.229 105.746 268.091ZM155.589 210.289C155.176 211.252 155.039 211.941 154.626 212.629C154.213 213.454 154.35 214.005 155.039 214.693C159.307 219.097 163.575 223.501 167.844 227.905C173.351 233.548 178.859 239.328 184.367 244.97C185.33 246.071 186.432 247.035 187.533 248.136C187.947 247.172 188.222 246.209 188.635 245.383C188.91 244.97 188.773 244.557 188.36 244.282C185.606 241.53 182.852 238.64 180.098 235.749C174.178 229.694 168.257 223.501 162.474 217.446C160.271 215.106 157.93 212.766 155.589 210.289ZM46.8145 105.007C47.6407 107.209 48.7422 109.824 49.706 112.301C49.8437 112.576 49.9814 112.714 50.1191 112.851C53.2859 116.154 56.4528 119.457 59.6197 122.623C64.7142 127.852 69.671 133.082 74.7655 138.312C75.8671 139.413 77.1063 140.514 78.2078 141.615C78.7585 140.789 78.7585 139.963 78.3455 139C77.657 137.624 77.244 135.972 76.2801 134.871C74.9032 133.082 73.251 131.568 71.5987 130.054C65.1273 123.311 58.6558 116.567 52.1844 109.961C50.3945 108.172 48.3291 106.521 46.8145 105.007ZM151.596 109.686H151.734C150.77 107.071 149.669 104.456 148.705 101.704C148.567 101.429 148.43 101.291 148.292 101.153C147.466 100.328 146.64 99.3644 145.813 98.5386C138.929 91.3822 132.044 84.2257 125.022 77.0693C123.783 75.6931 122.269 74.5921 121.167 73.4911C122.406 76.1059 123.783 78.996 125.022 81.8861C125.298 82.299 125.573 82.7119 125.848 83.1248C127.776 85.0515 129.704 87.1158 131.631 89.0426C138.241 95.9238 144.85 102.805 151.596 109.686ZM42.2708 93.1713C42.2708 93.1713 42.1331 93.1713 42.1331 93.3089C42.9592 95.5109 43.923 97.8505 44.7492 100.052C44.8869 100.19 45.0246 100.328 45.1622 100.465C47.6407 103.08 50.1191 105.557 52.5975 108.172C58.5182 114.365 64.4388 120.558 70.4972 126.614C72.0118 128.128 73.664 129.504 75.0409 130.88C74.2148 128.953 73.3886 126.751 72.5625 124.412C72.4248 124.137 72.2871 123.999 72.1494 123.861C71.0479 122.623 69.8087 121.522 68.7072 120.283C62.2358 113.54 55.7644 106.934 49.2929 100.19C46.9522 97.9881 44.6115 95.5109 42.2708 93.1713ZM134.11 101.016L133.972 101.153C135.624 104.594 137.277 108.172 138.929 111.613C139.067 111.888 139.204 112.026 139.342 112.301C143.886 117.118 148.567 121.797 153.111 126.614C154.213 127.715 155.314 128.816 156.416 129.917C156.553 129.504 156.829 128.953 156.966 128.541C157.93 125.788 157.93 125.788 155.865 123.724C150.77 118.494 145.813 113.264 140.719 108.172C138.654 105.695 136.313 103.355 134.11 101.016ZM127.776 87.9416C128.74 90.0059 129.704 92.3455 130.943 94.5475C131.494 95.6485 132.182 96.6119 133.008 97.4376C139.48 104.181 145.951 110.925 152.423 117.531C153.662 118.769 155.039 120.008 156.278 121.247C155.314 118.907 154.488 116.43 153.386 113.952C153.249 113.677 153.111 113.54 152.836 113.264C151.183 111.613 149.669 109.961 148.017 108.31C143.06 103.08 138.103 97.9881 133.008 92.7584C131.218 91.1069 129.428 89.4554 127.776 87.9416ZM126.812 164.598C124.609 160.056 122.269 155.377 120.065 150.836C119.928 150.423 119.652 150.01 119.377 149.735C116.072 146.294 112.768 142.853 109.463 139.413C109.326 139.275 109.05 139.138 108.913 139C108.362 140.514 107.949 141.89 107.26 143.266C106.847 144.23 107.123 144.78 107.811 145.468C112.493 150.285 117.036 155.102 121.718 159.781C123.37 161.57 126.95 164.736 126.812 164.598ZM51.496 116.567L51.3583 116.705C52.0467 118.494 52.7352 120.146 53.4236 122.072C53.9744 123.724 54.9382 125.1 56.1774 126.201C61.1343 131.293 66.0911 136.523 71.1856 141.615C72.9756 143.404 74.7655 145.055 76.5555 146.707C76.8309 146.156 76.9686 145.331 77.3817 144.505C77.657 143.817 77.5193 143.266 76.9686 142.716C71.0479 136.66 65.1273 130.467 59.2066 124.274C56.5905 121.797 53.9744 119.182 51.496 116.567ZM115.797 61.5178C115.659 61.5178 115.659 61.6554 115.522 61.6554C116.348 63.4445 117.174 65.3713 118.138 67.1604C118.551 67.8485 118.964 68.5366 119.515 69.0871C127.914 77.895 136.451 86.5653 144.85 95.3733C145.538 96.0614 146.227 96.6119 146.915 97.3C146.089 95.3733 145.4 93.4465 144.712 91.6574C144.574 91.3822 144.299 91.1069 144.161 90.8317C142.509 89.0426 140.719 87.2535 138.929 85.4644C133.559 79.8218 128.051 74.3168 122.682 68.6743C120.341 66.3347 118.138 63.995 115.797 61.5178ZM56.0397 128.678C56.1774 128.953 56.3151 129.229 56.3151 129.366C57.2789 131.844 58.2428 134.321 59.2066 136.798C59.482 137.486 59.895 138.312 60.4458 138.862C64.1634 142.853 68.0187 146.707 71.8741 150.698C72.5625 151.524 73.251 152.212 74.2148 153.175C74.6279 151.799 75.0409 150.836 75.454 149.735C75.7294 148.909 75.5917 148.496 75.0409 147.808C70.3595 142.991 65.8157 138.174 61.1343 133.495C59.482 131.844 56.1774 128.953 56.0397 128.678ZM141.545 117.393C142.371 119.045 143.473 121.247 144.437 123.586C145.538 126.063 146.777 128.265 148.705 130.054C149.256 130.467 149.531 131.018 150.082 131.431C151.596 132.807 152.973 134.183 154.488 135.559C154.763 134.734 155.039 133.77 155.589 132.807C156.003 131.981 155.865 131.568 155.176 130.88C152.423 128.128 149.944 125.375 147.19 122.76C145.125 120.696 143.06 118.907 141.545 117.393ZM72.1494 158.955C72.5625 157.717 72.9756 156.616 73.3886 155.515C73.664 154.964 73.5263 154.551 73.1133 154.139C71.0479 152.074 69.1203 149.872 67.0549 147.808C65.1273 146.019 63.1996 144.23 61.685 142.853C62.6488 145.193 63.7504 148.221 64.9896 151.249C64.9896 151.386 65.1273 151.524 65.2649 151.524C67.468 154.001 69.671 156.341 72.1494 158.955ZM111.116 132.532C110.565 133.908 110.29 135.009 109.739 136.11C109.463 136.798 109.601 137.211 110.014 137.624C111.391 139 112.63 140.376 113.869 141.615C114.833 142.578 115.935 143.542 116.761 144.23C115.109 140.651 113.181 136.66 111.116 132.532ZM70.0841 164.323C70.2218 164.323 70.2218 164.323 70.3595 164.323C70.7725 163.222 71.1856 161.983 71.5987 160.882C71.5987 160.745 71.5987 160.332 71.461 160.332C69.8087 158.818 68.2941 157.304 66.9172 156.203C67.7434 158.543 68.8449 161.433 70.0841 164.323ZM152.423 140.789C152.836 139.688 153.249 138.725 153.524 137.761C153.524 137.624 153.524 137.211 153.386 137.073C151.734 135.559 149.944 134.046 148.705 132.807C149.669 135.009 151.046 137.899 152.423 140.789Z" fill="black"/>
<path d="M472.719 103.831L472.03 98.4634L464.733 99.4268L465.559 106.17L468.45 105.757C468.45 106.17 468.313 106.583 468.037 106.858C467.762 107.409 467.074 107.959 466.11 108.51L465.834 108.923L468.037 112.088L468.45 111.813C470.24 110.712 471.48 109.611 472.03 108.372C472.719 107.271 472.994 105.757 472.719 103.831Z" fill="black"/>
<path d="M325.942 78.7832L313.687 52.9099L321.398 52.0842L328.282 68.1861L331.587 50.9832L339.435 50.1574L332.826 78.0951L334.891 97.5L328.007 98.1881L325.942 78.7832Z" fill="black"/>
<path d="M355.27 47.9556C358.299 47.6803 361.053 48.3685 363.531 50.4328C365.872 52.3596 367.249 54.8368 367.662 57.8645L370.416 83.1873C370.691 86.215 370.002 88.9675 367.937 91.4447C366.009 93.7843 363.531 95.1605 360.502 95.5734C357.473 95.8487 354.719 95.1606 352.378 93.0962C350.037 91.1695 348.661 88.6922 348.385 85.6645L345.631 60.3417C345.356 57.314 346.044 54.5615 348.11 52.0843C349.762 49.6071 352.24 48.2308 355.27 47.9556ZM360.226 58.415C360.089 57.314 359.676 56.3507 358.712 55.6625C357.886 54.9744 356.922 54.6992 355.82 54.8368C354.719 54.9744 353.755 55.3873 353.067 56.3507C352.378 57.1764 352.103 58.1398 352.24 59.2407L354.994 84.5635C355.132 85.6645 355.545 86.6279 356.509 87.316C357.335 88.0041 358.437 88.2794 359.538 88.1417C360.64 88.0041 361.603 87.5912 362.292 86.6279C362.98 85.8021 363.256 84.8388 363.118 83.7378L360.226 58.415Z" fill="black"/>
<path d="M390.38 92.1328C387.351 92.408 384.597 91.7199 382.257 89.7932C379.916 87.8665 378.539 85.3892 378.264 82.3615L374.408 46.5793L381.293 45.8912L385.148 81.6734C385.286 82.7744 385.699 83.7378 386.663 84.4259C387.489 85.114 388.59 85.3892 389.692 85.2516C390.793 85.114 391.757 84.7011 392.446 83.7378C393.134 82.912 393.409 81.9486 393.272 80.8476L389.416 45.0655L396.714 44.2397L400.569 80.0219C400.845 83.1872 400.156 85.8021 398.091 88.1417C395.888 90.4813 393.409 91.7199 390.38 92.1328Z" fill="black"/>
<path d="M412.273 42.3131L424.941 72.4527L421.636 41.3497L428.521 40.6616L433.477 86.9032L426.042 87.729L413.237 59.1032L416.404 88.8299L409.382 89.5181L404.425 43.2765L412.273 42.3131Z" fill="black"/>
<path d="M452.616 85.5268C449.587 85.8021 446.833 85.114 444.355 83.0496C442.014 81.1229 440.637 78.6456 440.224 75.6179L437.47 50.2952C437.195 47.2674 437.884 44.515 439.949 42.0377C441.877 39.6981 444.355 38.3219 447.384 37.909C450.413 37.6338 453.167 38.3219 455.508 40.3863C457.849 42.313 459.225 44.7902 459.501 47.8179L460.052 53.0476L452.754 53.8734L452.203 48.5061C452.066 47.4051 451.653 46.4417 450.689 45.7536C449.863 45.0655 448.761 44.7902 447.66 44.9278C446.558 45.0655 445.594 45.4783 444.906 46.4417C444.217 47.2675 443.942 48.3684 444.08 49.4694L446.833 74.7922C446.971 75.8932 447.384 76.8566 448.348 77.5447C449.174 78.2328 450.138 78.508 451.239 78.3704C452.341 78.2328 453.305 77.8199 453.993 76.8566C454.682 76.0308 454.957 75.0675 454.819 73.9665L453.856 64.8833L450 65.2961L449.312 58.2773L460.465 57.0387L462.255 73.2783C462.53 76.3061 461.842 79.0585 459.776 81.3981C458.124 83.8754 455.646 85.2516 452.616 85.5268Z" fill="black"/>
<path d="M321.122 114.153L328.558 113.327L326.217 160.394L319.608 161.082L312.861 136.035L311.897 161.908L305.15 162.734L292.483 117.18L299.78 116.492L306.114 140.852L306.803 115.666L314.1 114.841L320.434 139.338L321.122 114.153Z" fill="black"/>
<path d="M344.805 110.987C347.834 110.712 350.588 111.4 353.067 113.464C355.407 115.391 356.784 117.868 357.197 120.896L359.951 146.219C360.226 149.247 359.538 151.999 357.473 154.476C355.545 156.816 353.067 158.192 350.037 158.605C347.008 158.88 344.254 158.192 341.914 156.128C339.573 154.201 338.196 151.724 337.921 148.696L335.167 123.373C334.891 120.346 335.58 117.593 337.645 115.116C339.298 112.639 341.776 111.4 344.805 110.987ZM349.762 121.584C349.624 120.483 349.211 119.52 348.247 118.832C347.421 118.144 346.457 117.868 345.356 118.006C344.254 118.144 343.291 118.557 342.602 119.52C341.914 120.346 341.638 121.309 341.776 122.41L344.53 147.733C344.667 148.834 345.081 149.797 346.044 150.485C346.871 151.173 347.972 151.449 349.074 151.311C350.175 151.173 351.139 150.761 351.827 149.797C352.516 148.971 352.791 148.008 352.653 146.907L349.762 121.584Z" fill="black"/>
<path d="M375.785 155.164L368.901 155.853L363.944 109.611L373.995 108.51L384.046 141.127L386.663 107.134L396.301 106.033L401.258 152.412L394.235 153.238L391.206 124.061L388.177 153.788L382.67 154.476L372.756 126.126L375.785 155.164Z" fill="black"/>
<path d="M409.382 151.586L404.425 105.207L424.252 103.143L425.078 110.162L412.135 111.538L413.512 124.199L422.875 123.098L423.701 130.117L414.201 131.218L415.578 143.742L428.521 142.366L429.209 149.384L409.382 151.586Z" fill="black"/>
<path d="M438.71 101.629L451.377 131.768L448.072 100.528L454.957 99.8396L459.914 146.219L452.479 146.907L439.673 118.281L442.84 148.008L435.818 148.696L430.861 102.454L438.71 101.629Z" fill="black"/>
<path d="M503.286 129.842C503.699 133.007 503.148 135.897 501.634 138.374C500.67 140.026 499.155 141.264 497.228 142.228C496.126 142.641 494.887 143.054 493.372 143.191C490.619 143.466 488.278 143.054 486.35 141.953C484.698 140.989 483.321 139.613 482.357 137.824C481.256 136.035 480.567 133.833 480.154 131.493L486.763 130.255C487.314 132.869 488.278 134.796 489.517 135.897C490.481 136.723 491.445 136.998 492.546 136.86C494.061 136.585 495.162 135.759 495.988 134.246C496.401 133.42 496.539 132.457 496.402 131.08C496.264 129.154 495.162 127.364 493.097 125.575C491.582 124.474 489.242 122.685 486.212 120.346C483.596 118.281 481.806 116.492 480.705 114.841C479.466 112.914 478.777 110.85 478.502 108.51C478.089 104.244 479.19 100.941 481.669 98.4635C483.321 96.9496 485.386 96.1239 488.002 95.8486C490.481 95.5734 492.684 95.8486 494.612 96.812C496.126 97.5001 497.365 98.6011 498.329 100.115C499.293 101.629 499.981 103.28 500.395 105.345L493.785 107.271C493.372 105.345 492.684 103.968 491.72 103.005C491.032 102.317 490.068 102.042 488.829 102.179C487.589 102.317 486.626 103.005 486.075 104.244C485.662 105.207 485.524 106.308 485.662 107.684C485.937 109.749 487.039 111.813 489.104 113.877C489.93 114.703 491.032 115.529 492.546 116.492C494.336 117.731 495.438 118.557 496.126 118.969C498.054 120.483 499.568 122.135 500.67 123.649C501.221 124.337 501.634 125.025 501.909 125.713C502.598 127.089 503.148 128.603 503.286 129.842Z" fill="black"/>
<path d="M340.399 181.175L332.964 182.001L332.275 174.982L354.03 172.643L354.856 179.662L347.421 180.487L351.69 219.71L344.667 220.536L340.399 181.175Z" fill="black"/>
<path d="M372.481 170.716C376.336 170.303 379.365 171.129 381.43 173.056C383.22 174.707 384.322 177.322 384.735 180.625L385.423 187.368C385.837 190.671 384.873 193.561 382.532 196.039L389.83 215.719L382.257 216.545L376.198 199.617C376.061 199.617 375.785 199.617 375.51 199.617L371.517 200.03L373.444 217.508L366.422 218.196L361.465 171.955L372.481 170.716ZM377.851 181.451C377.575 178.836 376.061 177.597 373.444 177.872L369.176 178.285L370.691 193.149L374.959 192.736C376.061 192.598 377.024 192.185 377.713 191.222C378.401 190.396 378.677 189.295 378.539 188.194L377.851 181.451Z" fill="black"/>
<path d="M407.591 214.343C404.562 214.618 401.808 213.93 399.468 212.003C397.127 210.076 395.75 207.599 395.475 204.571L391.619 168.789L398.504 168.101L402.359 203.883C402.497 204.984 402.91 205.948 403.874 206.636C404.7 207.324 405.801 207.599 406.903 207.462C408.004 207.324 408.968 206.911 409.657 205.948C410.345 205.122 410.621 204.159 410.483 203.058L406.628 167.275L413.925 166.45L417.78 202.232C418.056 205.397 417.367 208.012 415.302 210.352C413.237 212.691 410.621 213.93 407.591 214.343Z" fill="black"/>
<path d="M448.072 197.828C448.485 200.993 447.934 203.883 446.42 206.36C445.456 208.012 443.941 209.251 442.014 210.214C440.912 210.627 439.673 211.04 438.158 211.177C435.405 211.452 433.064 211.04 431.136 209.939C429.484 208.975 428.107 207.599 427.143 205.81C426.042 204.021 425.353 201.819 424.94 199.479L431.549 198.241C432.1 200.855 433.064 202.782 434.303 203.883C435.267 204.709 436.231 204.984 437.332 204.847C438.847 204.571 439.948 203.746 440.775 202.232C441.188 201.406 441.325 200.443 441.188 199.066C440.912 197.14 439.948 195.351 437.883 193.561C436.368 192.46 434.028 190.671 430.999 188.332C428.382 186.267 426.593 184.478 425.491 182.827C424.252 180.9 423.426 178.836 423.288 176.496C422.875 172.23 423.976 168.927 426.455 166.45C428.107 164.936 430.172 164.11 432.789 163.835C435.267 163.559 437.47 163.835 439.398 164.798C440.912 165.486 442.151 166.587 443.115 168.101C444.079 169.615 444.768 171.266 445.181 173.331L438.572 175.257C438.158 173.331 437.47 171.954 436.506 170.991C435.818 170.303 434.854 170.028 433.615 170.165C432.376 170.303 431.412 170.991 430.861 172.23C430.448 173.193 430.31 174.294 430.448 175.67C430.723 177.735 431.825 179.799 433.89 181.863C434.716 182.689 435.818 183.515 437.332 184.478C439.122 185.717 440.224 186.543 440.912 186.955C442.84 188.469 444.355 189.983 445.456 191.635C446.007 192.323 446.42 193.011 446.695 193.699C447.521 195.075 447.934 196.452 448.072 197.828Z" fill="black"/>
<path d="M459.225 168.514L451.79 169.34L451.102 162.321L472.857 159.981L473.545 167L466.248 167.826L470.378 207.049L463.356 207.875L459.225 168.514Z" fill="black"/>
<path fill-rule="evenodd" clip-rule="evenodd" d="M338.471 239.253C337.094 238.427 336.544 237.463 336.819 236.225C337.094 234.849 338.058 234.16 339.71 233.885C355.682 231.821 371.517 229.757 387.489 227.417C402.497 225.353 417.505 223.151 432.513 221.912C445.869 220.811 459.225 219.985 472.581 218.884C476.299 218.609 479.879 218.334 483.596 218.196C485.386 218.059 486.35 218.747 486.488 220.26C486.625 221.912 485.662 223.151 484.009 223.288C481.256 223.563 478.502 223.701 475.748 223.839C465.559 224.527 455.232 225.215 445.043 226.041C436.506 226.729 427.97 227.417 419.433 228.38C411.034 229.344 402.772 230.582 394.373 231.683C380.054 233.61 365.734 235.812 351.414 237.739C347.696 238.289 344.117 238.564 340.399 238.977C340.124 238.977 339.986 239.115 339.71 239.253H338.471V239.253Z" fill="black"/>
</svg>
